<mxfile host="65bd71144e">
    <diagram id="qqnwfpFZeP08U60aJSzz" name="Page-1">
        <mxGraphModel dx="571" dy="639" grid="1" gridSize="10" guides="1" tooltips="1" connect="1" arrows="1" fold="1" page="1" pageScale="1" pageWidth="850" pageHeight="1100" math="0" shadow="0">
            <root>
                <mxCell id="0"/>
                <mxCell id="1" parent="0"/>
                <mxCell id="4" value="" style="edgeStyle=none;html=1;" edge="1" parent="1" source="2" target="3">
                    <mxGeometry relative="1" as="geometry"/>
                </mxCell>
                <mxCell id="6" value="" style="edgeStyle=none;html=1;" edge="1" parent="1" source="2" target="5">
                    <mxGeometry relative="1" as="geometry"/>
                </mxCell>
                <mxCell id="8" value="" style="edgeStyle=none;html=1;" edge="1" parent="1" source="2" target="7">
                    <mxGeometry relative="1" as="geometry"/>
                </mxCell>
                <mxCell id="2" value="App" style="whiteSpace=wrap;html=1;" vertex="1" parent="1">
                    <mxGeometry x="250" y="20" width="120" height="60" as="geometry"/>
                </mxCell>
                <mxCell id="3" value="Header&lt;br&gt;rtn &amp;lt;header&amp;gt; &amp;gt; &amp;lt;h1 name=prop.name&amp;gt;" style="whiteSpace=wrap;html=1;fillColor=#60a917;fontColor=#ffffff;strokeColor=#2D7600;" vertex="1" parent="1">
                    <mxGeometry x="10" y="160" width="120" height="60" as="geometry"/>
                </mxCell>
                <mxCell id="5" value="About&lt;br&gt;img=default URL&lt;br&gt;rtn &amp;lt;aside&amp;gt; &amp;gt; &amp;lt;img src=prop.img alt=&quot;blog logo&quot;/&amp;gt;, &amp;lt;p&amp;gt;prop.about" style="whiteSpace=wrap;html=1;imageAspect=0;autosize=1;fillColor=#60a917;fontColor=#ffffff;strokeColor=#2D7600;" vertex="1" parent="1">
                    <mxGeometry x="130" y="240" width="360" height="50" as="geometry"/>
                </mxCell>
                <mxCell id="10" value="" style="edgeStyle=none;html=1;" edge="1" parent="1" source="7" target="9">
                    <mxGeometry relative="1" as="geometry"/>
                </mxCell>
                <mxCell id="7" value="ArticleList&lt;br&gt;rtn &amp;lt;main&amp;gt; &amp;lt;Article key&amp;nbsp; post = prop.post/&amp;gt;" style="whiteSpace=wrap;html=1;fillColor=#60a917;fontColor=#ffffff;strokeColor=#2D7600;" vertex="1" parent="1">
                    <mxGeometry x="460" y="160" width="120" height="60" as="geometry"/>
                </mxCell>
                <mxCell id="9" value="Article&lt;br&gt;date='Jan 1, 1970'&lt;br&gt;rtn &amp;lt;article&amp;gt; &amp;gt; &amp;lt;h3&amp;gt;prop.title &amp;lt;small&amp;gt;prop.date &amp;lt;p&amp;gt;prop.preview" style="whiteSpace=wrap;html=1;autosize=1;imageAspect=0;fillColor=#0050ef;fontColor=#ffffff;strokeColor=#001DBC;" vertex="1" parent="1">
                    <mxGeometry x="452.5" y="320" width="135" height="110" as="geometry"/>
                </mxCell>
            </root>
        </mxGraphModel>
    </diagram>
</mxfile>